<svg width="35" height="35" viewBox="0 0 35 35" fill="none" xmlns="http://www.w3.org/2000/svg">
<path d="M22.8612 10.8332C23.1268 10.5402 23.495 10.3626 23.888 10.3379C24.2811 10.3133 24.6683 10.4435 24.968 10.7011C25.2677 10.9587 25.4563 11.3236 25.4942 11.7187C25.5321 12.1138 25.4163 12.5083 25.1711 12.8188L17.8177 23.545C17.6896 23.7052 17.5307 23.8377 17.3506 23.9346C17.1705 24.0315 16.9728 24.0908 16.7694 24.1089C16.566 24.127 16.3611 24.1036 16.1669 24.0401C15.9727 23.9766 15.7931 23.8743 15.639 23.7392L9.92009 18.7284C9.76154 18.599 9.63044 18.4389 9.53463 18.2574C9.43881 18.0759 9.38024 17.8769 9.36241 17.6721C9.34457 17.4673 9.36784 17.261 9.43082 17.0656C9.4938 16.8701 9.5952 16.6894 9.72898 16.5343C9.86276 16.3791 10.0262 16.2528 10.2095 16.1627C10.3928 16.0726 10.5922 16.0207 10.7958 16.01C10.9995 15.9993 11.2032 16.0301 11.3949 16.1005C11.5865 16.1708 11.7621 16.2794 11.9112 16.4197L16.4369 20.3831L22.826 10.8807C22.8375 10.8642 22.85 10.8483 22.8633 10.8331L22.8612 10.8332Z" fill="#6C3681"/>
</svg>
