<?xml version="1.0" encoding="utf-8"?>
<!-- Generator: Adobe Illustrator 22.0.0, SVG Export Plug-In . SVG Version: 6.00 Build 0)  -->
<svg version="1.1" id="Layer_1" xmlns="http://www.w3.org/2000/svg" xmlns:xlink="http://www.w3.org/1999/xlink" x="0px" y="0px"
	 viewBox="0 0 512 512" style="enable-background:new 0 0 512 512;" xml:space="preserve">
<style type="text/css">
	.st0{fill:#2CB742;}
</style>
<g id="_x33_75-whatsapp">
	<g>
		<path class="st0" d="M418.1,92.8C375.1,49.7,317.8,26,256.9,26C131.2,26,28.9,128.3,28.9,253.9c0,40.1,10.5,79.4,30.4,114L27,486
			l120.9-31.7c33.3,18.2,70.7,27.7,108.9,27.7h0.1C382.4,482,487,379.7,487,254C487,193.2,461.1,136,418.1,92.8z M256.9,443.6
			c-34.1,0-67.5-9.1-96.5-26.4l-6.9-4.1l-71.7,18.8l19.1-69.9l-4.5-7.2c-19-30.2-29-65-29-100.8c0-104.4,85-189.4,189.5-189.4
			c50.6,0,98.2,19.7,133.9,55.5c35.7,35.8,57.7,83.4,57.6,134C448.5,358.6,361.3,443.6,256.9,443.6z"/>
		<path class="st0" d="M360.8,301.7c-5.6-2.9-33.7-16.6-38.9-18.5c-5.2-2-9-2.9-12.8,2.9s-14.7,18.5-18.1,22.4
			c-3.3,3.8-6.7,4.3-12.3,1.4c-33.5-16.7-55.4-29.9-77.5-67.8c-5.9-10.1,5.9-9.3,16.7-31.1c1.9-3.8,0.9-7.1-0.5-10
			c-1.4-2.9-12.8-30.9-17.6-42.3c-4.6-11.1-9.3-9.5-12.8-9.8c-3.3-0.2-7.1-0.2-10.9-0.2c-3.8,0-10,1.4-15.2,7.1
			c-5.2,5.8-19.9,19.5-19.9,47.5s20.4,55.1,23.2,58.9c2.9,3.8,40.1,61.3,97.3,86c36.1,15.6,50.3,16.9,68.4,14.3
			c11-1.6,33.7-13.8,38.4-27.1c4.7-13.3,4.7-24.7,3.3-27.1C370.2,305.9,366.4,304.5,360.8,301.7z"/>
	</g>
</g>
<g id="Layer_1_1_">
</g>
</svg>
