<svg width="81" height="81" viewBox="0 0 81 81" fill="none" xmlns="http://www.w3.org/2000/svg">
<circle cx="40.5" cy="40.5" r="40" fill="#73BC8F"/>
<path d="M48.8121 55.4626V52.1376C48.8121 50.3739 48.1115 48.6824 46.8643 47.4353C45.6172 46.1882 43.9257 45.4875 42.162 45.4875H28.862C27.0983 45.4875 25.4068 46.1882 24.1597 47.4353C22.9125 48.6824 22.2119 50.3739 22.2119 52.1376V55.4626" fill="#73BC8F"/>
<path d="M48.8121 55.4626V52.1376C48.8121 50.3739 48.1115 48.6824 46.8643 47.4353C45.6172 46.1882 43.9257 45.4875 42.162 45.4875H28.862C27.0983 45.4875 25.4068 46.1882 24.1597 47.4353C22.9125 48.6824 22.2119 50.3739 22.2119 52.1376V55.4626" stroke="white" stroke-width="5" stroke-linecap="round" stroke-linejoin="round"/>
<path d="M35.5123 38.8375C39.1851 38.8375 42.1624 35.8602 42.1624 32.1875C42.1624 28.5147 39.1851 25.5374 35.5123 25.5374C31.8396 25.5374 28.8623 28.5147 28.8623 32.1875C28.8623 35.8602 31.8396 38.8375 35.5123 38.8375Z" fill="#73BC8F" stroke="white" stroke-width="5" stroke-linecap="round" stroke-linejoin="round"/>
<path d="M58.7873 55.4623V52.1373C58.7862 50.6638 58.2958 49.2325 57.3931 48.068C56.4904 46.9035 55.2265 46.0717 53.7998 45.7034" fill="#73BC8F"/>
<path d="M58.7873 55.4623V52.1373C58.7862 50.6638 58.2958 49.2325 57.3931 48.068C56.4904 46.9035 55.2265 46.0717 53.7998 45.7034" stroke="white" stroke-width="5" stroke-linecap="round" stroke-linejoin="round"/>
<path d="M47.1494 25.7534C48.5799 26.1197 49.8477 26.9516 50.7531 28.118C51.6585 29.2845 52.15 30.7191 52.15 32.1956C52.15 33.6722 51.6585 35.1068 50.7531 36.2733C49.8477 37.4397 48.5799 38.2716 47.1494 38.6379" fill="#73BC8F"/>
<path d="M47.1494 25.7534C48.5799 26.1197 49.8477 26.9516 50.7531 28.118C51.6585 29.2845 52.15 30.7191 52.15 32.1956C52.15 33.6722 51.6585 35.1068 50.7531 36.2733C49.8477 37.4397 48.5799 38.2716 47.1494 38.6379" stroke="white" stroke-width="5" stroke-linecap="round" stroke-linejoin="round"/>
</svg>
