<svg width="55" height="55" viewBox="0 0 55 55" fill="none" xmlns="http://www.w3.org/2000/svg">
<circle cx="27.5" cy="27.1099" r="27" fill="#F4F3FF"/>
<circle cx="27.4999" cy="27.1099" r="16.6667" stroke="#1C274C" stroke-width="1.5"/>
<path d="M27.5 17.1099V37.1099" stroke="#1C274C" stroke-width="1.5" stroke-linecap="round"/>
<path d="M31.75 22.9432C31.75 23.3574 32.0858 23.6932 32.5 23.6932C32.9142 23.6932 33.25 23.3574 33.25 22.9432H31.75ZM23.25 31.2765C23.25 30.8623 22.9142 30.5265 22.5 30.5265C22.0858 30.5265 21.75 30.8623 21.75 31.2765H23.25ZM27.5 26.3598C25.0189 26.3598 23.25 24.7079 23.25 22.9432H21.75C21.75 25.7808 24.4582 27.8598 27.5 27.8598V26.3598ZM23.25 22.9432C23.25 21.1784 25.0189 19.5265 27.5 19.5265V18.0265C24.4582 18.0265 21.75 20.1055 21.75 22.9432H23.25ZM27.5 19.5265C29.9811 19.5265 31.75 21.1784 31.75 22.9432H33.25C33.25 20.1055 30.5418 18.0265 27.5 18.0265V19.5265ZM27.5 27.8598C29.9811 27.8598 31.75 29.5117 31.75 31.2765H33.25C33.25 28.4389 30.5418 26.3598 27.5 26.3598V27.8598ZM31.75 31.2765C31.75 33.0412 29.9811 34.6932 27.5 34.6932V36.1932C30.5418 36.1932 33.25 34.1141 33.25 31.2765H31.75ZM27.5 34.6932C25.0189 34.6932 23.25 33.0412 23.25 31.2765H21.75C21.75 34.1141 24.4582 36.1932 27.5 36.1932V34.6932Z" fill="#1C274C"/>
</svg>
