<svg width="55" height="55" viewBox="0 0 55 55" fill="none" xmlns="http://www.w3.org/2000/svg">
<circle cx="27.5" cy="27.4457" r="27" fill="#F4F3FF"/>
<path d="M10.8333 12.4457L11.2748 12.5929C13.4748 13.3262 14.5749 13.6929 15.2041 14.5658C15.8333 15.4388 15.8333 16.5983 15.8333 18.9174V23.279C15.8333 27.9931 15.8333 30.3501 17.2977 31.8145C18.7622 33.279 21.1192 33.279 25.8333 33.279H39.1666" stroke="#1C274C" stroke-width="1.5" stroke-linecap="round"/>
<path d="M20 37.4457C21.3807 37.4457 22.5 38.565 22.5 39.9457C22.5 41.3264 21.3807 42.4457 20 42.4457C18.6193 42.4457 17.5 41.3264 17.5 39.9457C17.5 38.565 18.6193 37.4457 20 37.4457Z" stroke="#1C274C" stroke-width="1.5"/>
<path d="M35 37.4458C36.3807 37.4458 37.5 38.5651 37.5 39.9458C37.5 41.3265 36.3807 42.4458 35 42.4458C33.6193 42.4458 32.5 41.3265 32.5 39.9458C32.5 38.5651 33.6193 37.4458 35 37.4458Z" stroke="#1C274C" stroke-width="1.5"/>
<path d="M15.8333 17.4457H34.9172C38.3422 17.4457 40.0547 17.4457 40.7957 18.5695C41.5367 19.6932 40.8621 21.2672 39.5129 24.4153L38.7987 26.0819C38.1688 27.5517 37.8538 28.2866 37.2277 28.6994C36.6015 29.1123 35.802 29.1123 34.2029 29.1123H15.8333" stroke="#1C274C" stroke-width="1.5"/>
</svg>
