<svg width="54" height="55" viewBox="0 0 54 55" fill="none" xmlns="http://www.w3.org/2000/svg">
<circle cx="27" cy="27.1099" r="27" fill="#F4F3FF"/>
<path d="M43.665 25.4432C43.6498 20.2526 43.4858 17.5009 41.714 15.7291C39.7613 13.7765 36.6186 13.7765 30.3333 13.7765H23.6666C17.3812 13.7765 14.2385 13.7765 12.2859 15.7291C10.3333 17.6817 10.3333 20.8244 10.3333 27.1098C10.3333 33.3952 10.3333 36.5379 12.2859 38.4905C14.2385 40.4432 17.3812 40.4432 23.6666 40.4432H26.1666" stroke="#1C274C" stroke-width="1.5" stroke-linecap="round"/>
<path d="M33.5833 30.4432C33.5833 30.029 33.2475 29.6932 32.8333 29.6932C32.4191 29.6932 32.0833 30.029 32.0833 30.4432H33.5833ZM32.8333 40.4432L32.303 40.9736C32.5959 41.2665 33.0708 41.2665 33.3637 40.9736L32.8333 40.4432ZM36.697 37.6402C36.9899 37.3473 36.9899 36.8725 36.697 36.5796C36.4041 36.2867 35.9292 36.2867 35.6363 36.5796L36.697 37.6402ZM30.0303 36.5796C29.7374 36.2867 29.2626 36.2867 28.9697 36.5796C28.6768 36.8725 28.6768 37.3473 28.9697 37.6402L30.0303 36.5796ZM39.5833 40.4432C39.5833 40.8575 39.9191 41.1932 40.3333 41.1932C40.7475 41.1932 41.0833 40.8575 41.0833 40.4432H39.5833ZM40.3333 30.4432L40.8637 29.9129C40.5708 29.62 40.0959 29.62 39.803 29.9129L40.3333 30.4432ZM43.1363 34.3069C43.4292 34.5998 43.9041 34.5998 44.197 34.3069C44.4899 34.014 44.4899 33.5391 44.197 33.2462L43.1363 34.3069ZM36.4697 33.2462C36.1768 33.5391 36.1768 34.014 36.4697 34.3069C36.7626 34.5998 37.2374 34.5998 37.5303 34.3069L36.4697 33.2462ZM32.0833 30.4432V40.4432H33.5833V30.4432H32.0833ZM33.3637 40.9736L36.697 37.6402L35.6363 36.5796L32.303 39.9129L33.3637 40.9736ZM33.3637 39.9129L30.0303 36.5796L28.9697 37.6402L32.303 40.9736L33.3637 39.9129ZM41.0833 40.4432V30.4432H39.5833V40.4432H41.0833ZM39.803 30.9736L43.1363 34.3069L44.197 33.2462L40.8637 29.9129L39.803 30.9736ZM39.803 29.9129L36.4697 33.2462L37.5303 34.3069L40.8637 30.9736L39.803 29.9129Z" fill="#1C274C"/>
<path d="M23.6667 34.5265C24.0809 34.5265 24.4167 34.1907 24.4167 33.7765C24.4167 33.3623 24.0809 33.0265 23.6667 33.0265V34.5265ZM17 33.0265C16.5858 33.0265 16.25 33.3623 16.25 33.7765C16.25 34.1907 16.5858 34.5265 17 34.5265V33.0265ZM23.6667 33.0265H17V34.5265H23.6667V33.0265Z" fill="#1C274C"/>
<path d="M10.3333 23.7765L43.6666 23.7765" stroke="#1C274C" stroke-width="1.5" stroke-linecap="round"/>
</svg>
