<svg width="50" height="51" viewBox="0 0 50 51" fill="none" xmlns="http://www.w3.org/2000/svg">
<circle cx="23.3334" cy="15.4468" r="6.66667" stroke="#1C274C" stroke-width="1.5"/>
<path d="M36.6667 34.6135C36.6667 38.7557 36.6667 42.1135 23.3333 42.1135C10 42.1135 10 38.7557 10 34.6135C10 30.4714 15.9695 27.1135 23.3333 27.1135C30.6971 27.1135 36.6667 30.4714 36.6667 34.6135Z" stroke="#1C274C" stroke-width="1.5"/>
<path d="M33.835 22.0561C33.5271 21.779 33.0529 21.8039 32.7758 22.1118C32.4987 22.4197 32.5236 22.8939 32.8315 23.171L33.835 22.0561ZM35.5555 24.6135L35.0538 25.171C35.2022 25.3046 35.3978 25.3735 35.5972 25.3624C35.7966 25.3513 35.9833 25.2611 36.116 25.1118L35.5555 24.6135ZM40.5605 20.1118C40.8357 19.8022 40.8078 19.3282 40.4982 19.053C40.1886 18.7778 39.7146 18.8057 39.4394 19.1153L40.5605 20.1118ZM32.8315 23.171C33.2654 23.5615 33.604 23.8663 33.9426 24.171C34.2812 24.4757 34.6198 24.7805 35.0538 25.171L36.0572 24.0561C35.6233 23.6655 35.2847 23.3608 34.9461 23.0561C34.6075 22.7513 34.2689 22.4466 33.835 22.0561L32.8315 23.171ZM36.116 25.1118L40.5605 20.1118L39.4394 19.1153L34.9949 24.1153L36.116 25.1118Z" fill="#1C274C"/>
</svg>
