<svg width="54" height="55" viewBox="0 0 54 55" fill="none" xmlns="http://www.w3.org/2000/svg">
<circle cx="27" cy="27.5173" r="27" fill="#F4F3FF"/>
<path d="M33.6667 14.184C37.2917 14.2042 39.2549 14.365 40.5355 15.6456C42 17.1101 42 19.4671 42 24.1811V34.1811C42 38.8952 42 41.2522 40.5355 42.7167C39.0711 44.1811 36.714 44.1811 32 44.1811H22C17.286 44.1811 14.9289 44.1811 13.4645 42.7167C12 41.2522 12 38.8952 12 34.1811V24.1811C12 19.4671 12 17.1101 13.4645 15.6456C14.7451 14.365 16.7083 14.2042 20.3333 14.184" stroke="#1C274C" stroke-width="1.5"/>
<path d="M22.5117 29.3024C22.2089 29.0197 21.7343 29.0361 21.4517 29.3389C21.1691 29.6417 21.1854 30.1163 21.4883 30.3989L22.5117 29.3024ZM24.8571 32.5173L24.3454 33.0656C24.6336 33.3345 25.0807 33.3345 25.3689 33.0656L24.8571 32.5173ZM32.5117 26.3989C32.8146 26.1163 32.8309 25.6417 32.5483 25.3389C32.2657 25.0361 31.7911 25.0197 31.4883 25.3024L32.5117 26.3989ZM21.4883 30.3989L24.3454 33.0656L25.3689 31.969L22.5117 29.3024L21.4883 30.3989ZM25.3689 33.0656L32.5117 26.3989L31.4883 25.3024L24.3454 31.969L25.3689 33.0656Z" fill="#1C274C"/>
<path d="M20.3333 13.3506C20.3333 11.9699 21.4525 10.8506 22.8333 10.8506H31.1666C32.5473 10.8506 33.6666 11.9699 33.6666 13.3506V15.0173C33.6666 16.398 32.5473 17.5173 31.1666 17.5173H22.8333C21.4525 17.5173 20.3333 16.398 20.3333 15.0173V13.3506Z" stroke="#1C274C" stroke-width="1.5"/>
</svg>
