<svg width="80" height="81" viewBox="0 0 80 81" fill="none" xmlns="http://www.w3.org/2000/svg">
<circle cx="40" cy="40.5" r="40" fill="#73BC8F"/>
<path d="M36.7998 62.9034H43.2008H36.7998Z" fill="#73BC8F"/>
<path d="M36.7998 62.9034H43.2008" stroke="white" stroke-width="6" stroke-linecap="round" stroke-linejoin="round"/>
<path d="M52.8022 40.5001C52.8108 38.1037 52.1466 35.7531 50.8852 33.7156C49.6239 31.6781 47.8159 30.0355 45.6671 28.9748C43.5183 27.914 41.115 27.4777 38.7304 27.7154C36.3459 27.9531 34.0759 28.8553 32.1788 30.3193C30.2817 31.7834 28.8336 33.7505 27.9993 35.997C27.1649 38.2434 26.9778 40.6789 27.4593 43.0264C27.9407 45.3739 29.0714 47.5391 30.7227 49.2757C32.3739 51.0124 34.4794 52.2507 36.7997 52.8498V56.5026H43.2007V52.8498C45.9437 52.1468 48.3753 50.5523 50.1133 48.3168C51.8514 46.0814 52.7972 43.3317 52.8022 40.5001Z" fill="#73BC8F" stroke="white" stroke-width="6" stroke-linecap="round" stroke-linejoin="round"/>
<path d="M40.001 21.2971V18.0966V21.2971Z" fill="#73BC8F"/>
<path d="M40.001 21.2971V18.0966" stroke="white" stroke-width="6" stroke-linecap="round" stroke-linejoin="round"/>
<path d="M59.2041 37.2996H62.4046H59.2041Z" fill="#73BC8F"/>
<path d="M59.2041 37.2996H62.4046" stroke="white" stroke-width="6" stroke-linecap="round" stroke-linejoin="round"/>
<path d="M17.5967 40.5001H20.7972H17.5967Z" fill="#73BC8F"/>
<path d="M17.5967 40.5001H20.7972" stroke="white" stroke-width="6" stroke-linecap="round" stroke-linejoin="round"/>
<path d="M53.5791 52.4775L55.8429 54.7413L53.5791 52.4775Z" fill="#73BC8F"/>
<path d="M53.5791 52.4775L55.8429 54.7413" stroke="white" stroke-width="6" stroke-linecap="round" stroke-linejoin="round"/>
<path d="M24.1572 23.0576L26.4211 25.3214L24.1572 23.0576Z" fill="#73BC8F"/>
<path d="M24.1572 23.0576L26.4211 25.3214" stroke="white" stroke-width="6" stroke-linecap="round" stroke-linejoin="round"/>
<path d="M53.5791 25.3214L55.8429 23.0576L53.5791 25.3214Z" fill="#73BC8F"/>
<path d="M53.5791 25.3214L55.8429 23.0576" stroke="white" stroke-width="6" stroke-linecap="round" stroke-linejoin="round"/>
<path d="M24.1572 54.7414L26.4211 52.4775L24.1572 54.7414Z" fill="#73BC8F"/>
<path d="M24.1572 54.7414L26.4211 52.4775" stroke="white" stroke-width="6" stroke-linecap="round" stroke-linejoin="round"/>
</svg>
