<svg width="54" height="55" viewBox="0 0 54 55" fill="none" xmlns="http://www.w3.org/2000/svg">
<circle cx="27" cy="27.7814" r="27" fill="#F4F3FF"/>
<circle cx="27" cy="26.7814" r="5" stroke="#1C274C" stroke-width="1.5"/>
<path d="M29.9423 10.3684C29.3298 10.1147 28.5532 10.1147 27.0001 10.1147C25.4469 10.1147 24.6704 10.1147 24.0578 10.3684C23.241 10.7067 22.5921 11.3556 22.2538 12.1724C22.0994 12.5453 22.0389 12.9789 22.0153 13.6113C21.9805 14.5408 21.5038 15.4012 20.6983 15.8662C19.8928 16.3313 18.9094 16.3139 18.0871 15.8793C17.5275 15.5835 17.1218 15.4191 16.7216 15.3664C15.8451 15.251 14.9587 15.4885 14.2573 16.0267C13.7313 16.4303 13.343 17.1028 12.5665 18.4479C11.7899 19.793 11.4016 20.4655 11.3151 21.1229C11.1997 21.9994 11.4372 22.8858 11.9754 23.5872C12.221 23.9073 12.5663 24.1764 13.1021 24.5131C13.8897 25.008 14.3966 25.8511 14.3965 26.7814C14.3965 27.7116 13.8897 28.5546 13.1021 29.0494C12.5662 29.3861 12.2209 29.6553 11.9752 29.9754C11.437 30.6768 11.1995 31.5632 11.3149 32.4397C11.4015 33.0971 11.7897 33.7696 12.5663 35.1147C13.3429 36.4597 13.7312 37.1323 14.2572 37.5359C14.9586 38.0741 15.845 38.3116 16.7215 38.1962C17.1216 38.1435 17.5273 37.9791 18.0868 37.6834C18.9092 37.2487 19.8927 37.2313 20.6982 37.6964C21.5038 38.1615 21.9805 39.0219 22.0153 39.9515C22.0389 40.5839 22.0994 41.0175 22.2538 41.3903C22.5921 42.2071 23.241 42.856 24.0578 43.1943C24.6704 43.448 25.4469 43.448 27.0001 43.448C28.5532 43.448 29.3298 43.448 29.9423 43.1943C30.7591 42.856 31.408 42.2071 31.7463 41.3903C31.9008 41.0174 31.9612 40.5838 31.9849 39.9513C32.0196 39.0219 32.4962 38.1615 33.3017 37.6964C34.1073 37.2313 35.0908 37.2486 35.9132 37.6833C36.4727 37.979 36.8784 38.1434 37.2785 38.1961C38.155 38.3115 39.0414 38.074 39.7428 37.5358C40.2688 37.1322 40.6571 36.4596 41.4337 35.1146C42.2102 33.7695 42.5985 33.097 42.6851 32.4396C42.8004 31.5631 42.5629 30.6767 42.0247 29.9753C41.7791 29.6552 41.4338 29.386 40.898 29.0494C40.1103 28.5545 39.6036 27.7114 39.6036 26.7812C39.6037 25.8511 40.1104 25.0082 40.898 24.5133C41.4339 24.1766 41.7792 23.9074 42.0249 23.5873C42.5631 22.8859 42.8006 21.9995 42.6852 21.123C42.5987 20.4656 42.2104 19.7931 41.4338 18.448C40.6572 17.103 40.269 16.4304 39.7429 16.0268C39.0416 15.4886 38.1551 15.2511 37.2786 15.3665C36.8786 15.4192 36.4728 15.5836 35.9133 15.8793C35.0909 16.314 34.1074 16.3314 33.3019 15.8663C32.4963 15.4012 32.0196 14.5408 31.9849 13.6112C31.9612 12.9788 31.9008 12.5452 31.7463 12.1724C31.408 11.3556 30.7591 10.7067 29.9423 10.3684Z" stroke="#1C274C" stroke-width="1.5"/>
</svg>
