<svg width="36" height="36" viewBox="0 0 36 36" fill="none" xmlns="http://www.w3.org/2000/svg">
<g clip-path="url(#clip0_516_75)">
<path d="M33 30.0105C32.9973 30.4044 32.8396 30.7815 32.5612 31.0602C32.2828 31.3389 31.9059 31.4969 31.512 31.5H4.488C4.09322 31.4996 3.71475 31.3425 3.43573 31.0632C3.15672 30.7839 3 30.4053 3 30.0105V28.5H30V10.95L18 21.75L3 8.25V6C3 5.60218 3.15804 5.22064 3.43934 4.93934C3.72064 4.65804 4.10218 4.5 4.5 4.5H31.5C31.8978 4.5 32.2794 4.65804 32.5607 4.93934C32.842 5.22064 33 5.60218 33 6V30.0105ZM6.651 7.5L18 17.715L29.349 7.5H6.651ZM0 22.5H12V25.5H0V22.5ZM0 15H7.5V18H0V15Z" fill="black"/>
</g>
<defs>
<clipPath id="clip0_516_75">
<rect width="36" height="36" fill="white"/>
</clipPath>
</defs>
</svg>
