<svg width="60" height="66" viewBox="0 0 60 66" fill="none" xmlns="http://www.w3.org/2000/svg">
<path d="M15.1947 16.0391C15.4711 15.7306 15.445 15.2564 15.1364 14.98C14.8279 14.7037 14.3538 14.7297 14.0774 15.0383L15.1947 16.0391ZM22.8 12.7066L22.2413 12.2062C21.9862 12.491 21.9862 12.9221 22.2413 13.207L22.8 12.7066ZM25.7422 17.1152C26.0185 17.4238 26.4927 17.4499 26.8012 17.1735C27.1098 16.8971 27.1358 16.423 26.8595 16.1144L25.7422 17.1152ZM26.8595 9.29841C27.1358 8.98986 27.1098 8.51571 26.8012 8.23935C26.4927 7.96299 26.0185 7.98908 25.7422 8.29763L26.8595 9.29841ZM30 52.0359C25.7338 52.0359 22.6182 52.034 20.2359 51.6764C17.8844 51.3234 16.3548 50.6379 15.1947 49.3427L14.0774 50.3435C15.5533 51.9912 17.4631 52.777 20.0132 53.1598C22.5326 53.5379 25.781 53.5359 30 53.5359V52.0359ZM11.25 32.6909C11.25 37.4083 11.2487 41.014 11.5849 43.8054C11.9227 46.6107 12.6121 48.7077 14.0774 50.3435L15.1947 49.3427C14.0239 48.0357 13.3953 46.293 13.0741 43.6261C12.7513 40.9453 12.75 37.4464 12.75 32.6909H11.25ZM47.25 32.6909C47.25 37.4464 47.2487 40.9453 46.9259 43.6261C46.6047 46.293 45.9761 48.0357 44.8053 49.3427L45.9226 50.3435C47.3879 48.7077 48.0773 46.6107 48.4151 43.8054C48.7513 41.014 48.75 37.4083 48.75 32.6909H47.25ZM30 53.5359C34.219 53.5359 37.4674 53.5379 39.9868 53.1598C42.5369 52.777 44.4467 51.9912 45.9226 50.3435L44.8053 49.3427C43.6452 50.6379 42.1156 51.3234 39.7641 51.6764C37.3818 52.034 34.2662 52.0359 30 52.0359V53.5359ZM30 13.3458C34.2662 13.3458 37.3818 13.3478 39.7641 13.7054C42.1156 14.0583 43.6452 14.7439 44.8053 16.0391L45.9226 15.0383C44.4467 13.3906 42.5369 12.6048 39.9868 12.222C37.4674 11.8439 34.219 11.8458 30 11.8458V13.3458ZM48.75 32.6909C48.75 27.9735 48.7513 24.3678 48.4151 21.5763C48.0773 18.7711 47.3879 16.6741 45.9226 15.0383L44.8053 16.0391C45.9761 17.3461 46.6047 19.0888 46.9259 21.7557C47.2487 24.4365 47.25 27.9354 47.25 32.6909H48.75ZM12.75 32.6909C12.75 27.9354 12.7513 24.4365 13.0741 21.7557C13.3953 19.0888 14.0239 17.3461 15.1947 16.0391L14.0774 15.0383C12.6121 16.6741 11.9227 18.7711 11.5849 21.5763C11.2487 24.3678 11.25 27.9735 11.25 32.6909H12.75ZM30 11.8458C27.1637 11.8458 24.7734 11.8456 22.7583 11.9577L22.8417 13.4554C24.8061 13.3461 27.1496 13.3458 30 13.3458V11.8458ZM22.2413 13.207L25.7422 17.1152L26.8595 16.1144L23.3587 12.2061L22.2413 13.207ZM23.3587 13.2069L26.8595 9.29841L25.7422 8.29763L22.2413 12.2062L23.3587 13.2069Z" fill="#383838"/>
<path d="M23.5549 33.5863C23.2762 33.2799 22.8019 33.2574 22.4954 33.536C22.189 33.8147 22.1664 34.289 22.4451 34.5955L23.5549 33.5863ZM27 38.4897L26.4451 38.9943C26.5873 39.1506 26.7887 39.2397 27 39.2397C27.2113 39.2397 27.4127 39.1506 27.5549 38.9943L27 38.4897ZM37.5549 27.9973C37.8336 27.6908 37.811 27.2165 37.5046 26.9378C37.1981 26.6591 36.7238 26.6816 36.4451 26.9881L37.5549 27.9973ZM22.4451 34.5955L26.4451 38.9943L27.5549 37.9852L23.5549 33.5863L22.4451 34.5955ZM27.5549 38.9943L37.5549 27.9973L36.4451 26.9881L26.4451 37.9852L27.5549 38.9943Z" fill="#383838"/>
</svg>
