<svg width="55" height="55" viewBox="0 0 55 55" fill="none" xmlns="http://www.w3.org/2000/svg">
<circle cx="27.5" cy="27.4457" r="27" fill="#F4F3FF"/>
<path d="M26.75 42.4457C26.75 42.8599 27.0858 43.1957 27.5 43.1957C27.9142 43.1957 28.25 42.8599 28.25 42.4457H26.75ZM27.5 27.4457L28.0575 26.944C27.9152 26.7859 27.7126 26.6957 27.5 26.6957C27.2874 26.6957 27.0848 26.7859 26.9425 26.944L27.5 27.4457ZM31.9425 33.503C32.2196 33.8108 32.6938 33.8358 33.0017 33.5587C33.3096 33.2816 33.3346 32.8074 33.0575 32.4995L31.9425 33.503ZM21.9425 32.4995C21.6654 32.8074 21.6904 33.2816 21.9983 33.5587C22.3062 33.8358 22.7804 33.8108 23.0575 33.503L21.9425 32.4995ZM28.25 42.4457L28.25 27.4457L26.75 27.4457L26.75 42.4457H28.25ZM26.9425 27.9474L31.9425 33.503L33.0575 32.4995L28.0575 26.944L26.9425 27.9474ZM26.9425 26.944L21.9425 32.4995L23.0575 33.503L28.0575 27.9474L26.9425 26.944Z" fill="#1C274C"/>
<path d="M41.6666 19.1123V29.1123C41.6666 35.3977 41.6666 38.5404 39.714 40.493C37.7613 42.4456 34.6186 42.4456 28.3333 42.4456H26.6666C20.3812 42.4456 17.2385 42.4456 15.2859 40.493C13.3333 38.5404 13.3333 35.3977 13.3333 29.1123V19.1123" stroke="#1C274C" stroke-width="1.5" stroke-linecap="round"/>
<path d="M10.8333 15.779C10.8333 14.2077 10.8333 13.422 11.3214 12.9338C11.8096 12.4457 12.5952 12.4457 14.1666 12.4457H40.8333C42.4046 12.4457 43.1903 12.4457 43.6784 12.9338C44.1666 13.422 44.1666 14.2077 44.1666 15.779C44.1666 17.3504 44.1666 18.136 43.6784 18.6242C43.1903 19.1123 42.4046 19.1123 40.8333 19.1123H14.1666C12.5952 19.1123 11.8096 19.1123 11.3214 18.6242C10.8333 18.136 10.8333 17.3504 10.8333 15.779Z" stroke="#1C274C" stroke-width="1.5"/>
</svg>
