<svg width="37" height="37" viewBox="0 0 37 37" fill="none" xmlns="http://www.w3.org/2000/svg">
<g clip-path="url(#clip0_516_81)">
<path d="M5.57823 7.56361C7.31833 5.8232 9.65223 4.80524 12.1116 4.71399C14.571 4.62273 16.9739 5.46494 18.8382 7.07161C20.7009 5.46762 23.1006 4.62636 25.5571 4.71625C28.0135 4.80615 30.3453 5.82057 32.0857 7.55642C33.8261 9.29227 34.8467 11.6214 34.943 14.0776C35.0393 16.5338 34.2043 18.9358 32.6052 20.8026L20.9577 32.4876C20.4226 33.0229 19.7049 33.3362 18.9485 33.3645C18.1921 33.3929 17.453 33.1343 16.8792 32.6406L16.7142 32.4891L5.06823 20.8026C3.46997 18.9374 2.6346 16.5377 2.72916 14.0832C2.82371 11.6287 3.84121 9.30033 5.57823 7.56361V7.56361ZM7.69923 9.68461C6.4726 10.9116 5.76551 12.5638 5.72474 14.2983C5.68396 16.0328 6.31261 17.7163 7.48023 18.9996L7.69923 19.2306L18.8367 30.3681L26.7912 22.4121L21.4887 17.1096L19.8987 18.6996C19.4809 19.1176 18.9849 19.4492 18.4389 19.6755C17.893 19.9018 17.3078 20.0184 16.7168 20.0185C15.5232 20.0188 14.3784 19.5449 13.5342 18.7011C12.69 17.8573 12.2156 16.7127 12.2154 15.5192C12.2151 14.3256 12.6889 13.1808 13.5327 12.3366L16.6857 9.18211C15.4309 8.18067 13.8603 7.65914 12.2558 7.7111C10.6512 7.76306 9.11762 8.38509 7.93023 9.46561L7.69923 9.68461V9.68461ZM20.4282 13.9266C20.7095 13.6454 21.091 13.4874 21.4887 13.4874C21.8865 13.4874 22.2679 13.6454 22.5492 13.9266L28.9122 20.2896L29.9742 19.2306C31.2214 17.9843 31.9315 16.2995 31.9525 14.5365C31.9735 12.7734 31.3039 11.0721 30.0868 9.79644C28.8697 8.52075 27.2017 7.77191 25.4397 7.71009C23.6776 7.64826 21.9613 8.27836 20.6577 9.46561L20.4282 9.68461L15.6552 14.4576C15.3952 14.7174 15.2397 15.0637 15.2181 15.4306C15.1966 15.7975 15.3105 16.1596 15.5382 16.4481L15.6552 16.5786C15.9151 16.8386 16.2613 16.9941 16.6282 17.0157C16.9952 17.0373 17.3572 16.9234 17.6457 16.6956L17.7762 16.5786L20.4282 13.9266V13.9266Z" fill="black"/>
</g>
<defs>
<clipPath id="clip0_516_81">
<rect width="36" height="36" fill="white" transform="translate(0.836731 0.860107)"/>
</clipPath>
</defs>
</svg>
