<svg width="54" height="55" viewBox="0 0 54 55" fill="none" xmlns="http://www.w3.org/2000/svg">
<circle cx="27" cy="27.1099" r="27" fill="#F4F3FF"/>
<path d="M10.3333 30.4432C10.3333 24.1578 10.3333 21.0151 12.2859 19.0625C14.2385 17.1099 17.3812 17.1099 23.6666 17.1099H30.3333C36.6186 17.1099 39.7613 17.1099 41.714 19.0625C43.6666 21.0151 43.6666 24.1578 43.6666 30.4432C43.6666 36.7286 43.6666 39.8713 41.714 41.8239C39.7613 43.7765 36.6186 43.7765 30.3333 43.7765H23.6666C17.3812 43.7765 14.2385 43.7765 12.2859 41.8239C10.3333 39.8713 10.3333 36.7286 10.3333 30.4432Z" stroke="#1C274C" stroke-width="1.5"/>
<path d="M33.6666 17.1099C33.6666 13.9672 33.6666 12.3959 32.6903 11.4195C31.714 10.4432 30.1426 10.4432 26.9999 10.4432C23.8572 10.4432 22.2859 10.4432 21.3096 11.4195C20.3333 12.3959 20.3333 13.9672 20.3333 17.1099" stroke="#1C274C" stroke-width="1.5"/>
<path d="M26.2501 37.1098C26.2501 37.524 26.5859 37.8598 27.0001 37.8598C27.4143 37.8598 27.7501 37.524 27.7501 37.1098H26.2501ZM27.7501 23.7765C27.7501 23.3623 27.4143 23.0265 27.0001 23.0265C26.5859 23.0265 26.2501 23.3623 26.2501 23.7765H27.7501ZM29.5834 27.6654C29.5834 28.0796 29.9192 28.4154 30.3334 28.4154C30.7476 28.4154 31.0834 28.0796 31.0834 27.6654H29.5834ZM24.4167 33.2209C24.4167 32.8067 24.081 32.4709 23.6667 32.4709C23.2525 32.4709 22.9167 32.8067 22.9167 33.2209H24.4167ZM27.0001 29.6932C25.4395 29.6932 24.4167 28.6631 24.4167 27.6654H22.9167C22.9167 29.7359 24.8788 31.1932 27.0001 31.1932V29.6932ZM24.4167 27.6654C24.4167 26.6677 25.4395 25.6376 27.0001 25.6376V24.1376C24.8788 24.1376 22.9167 25.5948 22.9167 27.6654H24.4167ZM27.0001 25.6376C28.5607 25.6376 29.5834 26.6677 29.5834 27.6654H31.0834C31.0834 25.5948 29.1214 24.1376 27.0001 24.1376V25.6376ZM27.0001 31.1932C28.5607 31.1932 29.5834 32.2233 29.5834 33.2209H31.0834C31.0834 31.1504 29.1214 29.6932 27.0001 29.6932V31.1932ZM29.5834 33.2209C29.5834 34.2186 28.5607 35.2487 27.0001 35.2487V36.7487C29.1214 36.7487 31.0834 35.2915 31.0834 33.2209H29.5834ZM27.0001 35.2487C25.4395 35.2487 24.4167 34.2186 24.4167 33.2209H22.9167C22.9167 35.2915 24.8788 36.7487 27.0001 36.7487V35.2487ZM26.2501 35.9987V37.1098H27.7501V35.9987H26.2501ZM26.2501 23.7765V24.8876H27.7501V23.7765H26.2501Z" fill="#1C274C"/>
</svg>
