<svg width="37" height="37" viewBox="0 0 37 37" fill="none" xmlns="http://www.w3.org/2000/svg">
<g clip-path="url(#clip0_516_78)">
<path d="M25.9184 3.89014H30.4184C30.8162 3.89014 31.1977 4.04817 31.479 4.32948C31.7603 4.61078 31.9184 4.99231 31.9184 5.39014V32.3901C31.9184 32.788 31.7603 33.1695 31.479 33.4508C31.1977 33.7321 30.8162 33.8901 30.4184 33.8901H6.41837C6.02054 33.8901 5.63901 33.7321 5.35771 33.4508C5.0764 33.1695 4.91837 32.788 4.91837 32.3901V5.39014C4.91837 4.99231 5.0764 4.61078 5.35771 4.32948C5.63901 4.04817 6.02054 3.89014 6.41837 3.89014H10.9184V0.890137H13.9184V3.89014H22.9184V0.890137H25.9184V3.89014ZM25.9184 6.89014V9.89014H22.9184V6.89014H13.9184V9.89014H10.9184V6.89014H7.91837V30.8901H28.9184V6.89014H25.9184ZM10.9184 12.8901H25.9184V15.8901H10.9184V12.8901ZM10.9184 18.8901H25.9184V21.8901H10.9184V18.8901Z" fill="black"/>
</g>
<defs>
<clipPath id="clip0_516_78">
<rect width="36" height="36" fill="white" transform="translate(0.418365 0.890137)"/>
</clipPath>
</defs>
</svg>
