<svg width="60" height="60" viewBox="0 0 60 60" fill="none" xmlns="http://www.w3.org/2000/svg">
<path d="M10 30C10 20.5719 10 15.8579 12.9289 12.9289C15.8579 10 20.5719 10 30 10C39.4281 10 44.1421 10 47.0711 12.9289C50 15.8579 50 20.5719 50 30C50 39.4281 50 44.1421 47.0711 47.0711C44.1421 50 39.4281 50 30 50C20.5719 50 15.8579 50 12.9289 47.0711C10 44.1421 10 39.4281 10 30Z" stroke="#383838" stroke-width="1.5"/>
<path d="M18.5431 37.0828C18.2574 36.7828 17.7827 36.7712 17.4828 37.0569C17.1828 37.3426 17.1712 37.8173 17.4569 38.1172L18.5431 37.0828ZM20.2857 40L19.7426 40.5172C19.8842 40.6659 20.0805 40.75 20.2857 40.75C20.491 40.75 20.6873 40.6659 20.8288 40.5172L20.2857 40ZM26.5431 34.5172C26.8288 34.2173 26.8172 33.7426 26.5172 33.4569C26.2173 33.1712 25.7426 33.1828 25.4569 33.4828L26.5431 34.5172ZM17.4569 38.1172L19.7426 40.5172L20.8288 39.4828L18.5431 37.0828L17.4569 38.1172ZM20.8288 40.5172L26.5431 34.5172L25.4569 33.4828L19.7426 39.4828L20.8288 40.5172Z" fill="#383838"/>
<path d="M18.5431 23.0828C18.2574 22.7828 17.7827 22.7712 17.4828 23.0569C17.1828 23.3426 17.1712 23.8173 17.4569 24.1172L18.5431 23.0828ZM20.2857 26L19.7426 26.5172C19.8842 26.6659 20.0805 26.75 20.2857 26.75C20.491 26.75 20.6873 26.6659 20.8288 26.5172L20.2857 26ZM26.5431 20.5172C26.8288 20.2173 26.8172 19.7426 26.5172 19.4569C26.2173 19.1712 25.7426 19.1828 25.4569 19.4828L26.5431 20.5172ZM17.4569 24.1172L19.7426 26.5172L20.8288 25.4828L18.5431 23.0828L17.4569 24.1172ZM20.8288 26.5172L26.5431 20.5172L25.4569 19.4828L19.7426 25.4828L20.8288 26.5172Z" fill="#383838"/>
<path d="M32 24H42" stroke="#383838" stroke-width="1.5" stroke-linecap="round"/>
<path d="M32 38H42" stroke="#383838" stroke-width="1.5" stroke-linecap="round"/>
</svg>
