<svg width="55" height="55" viewBox="0 0 55 55" fill="none" xmlns="http://www.w3.org/2000/svg">
<circle cx="27.5" cy="27.4457" r="27" fill="#F4F3FF"/>
<path d="M36.7961 14.8316L37.1446 14.1675L36.7961 14.8316ZM33.4628 13.0823L33.1143 13.7464L33.4628 13.0823ZM21.5371 13.0823L21.8856 13.7464L21.5371 13.0823ZM36.7961 40.0599L37.1446 40.724L36.7961 40.0599ZM33.4628 41.8091L33.1143 41.145L33.4628 41.8091ZM21.5371 41.8091L21.8856 41.145H21.8856L21.5371 41.8091ZM18.2037 40.0599L17.8552 40.724H17.8552L18.2037 40.0599ZM11.8289 35.5462L11.1826 35.9267H11.1826L11.8289 35.5462ZM43.1709 35.5462L43.8172 35.9267L43.1709 35.5462ZM11.8289 19.3453L12.4752 19.7259L11.8289 19.3453ZM43.1709 19.3453L42.5246 19.7259L43.1709 19.3453ZM37.1446 14.1675L33.8113 12.4182L33.1143 13.7464L36.4476 15.4957L37.1446 14.1675ZM21.1886 12.4182L17.8552 14.1675L18.5523 15.4957L21.8856 13.7464L21.1886 12.4182ZM36.4476 39.3957L33.1143 41.145L33.8113 42.4732L37.1446 40.724L36.4476 39.3957ZM21.8856 41.145L18.5522 39.3957L17.8552 40.724L21.1886 42.4732L21.8856 41.145ZM43.4166 27.3482V27.5432H44.9166V27.3482H43.4166ZM10.0833 27.3482V27.5432H11.5833V27.3482H10.0833ZM18.5523 39.3957C16.7453 38.4475 15.4418 37.7624 14.4614 37.1076C13.4968 36.4634 12.8965 35.8811 12.4752 35.1656L11.1826 35.9267C11.757 36.902 12.5511 37.6356 13.6284 38.3551C14.6899 39.064 16.076 39.7903 17.8552 40.724L18.5523 39.3957ZM10.0833 27.5432C10.0833 29.6326 10.0824 31.2536 10.2113 32.5622C10.3418 33.8864 10.6096 34.9535 11.1826 35.9267L12.4752 35.1656C12.0526 34.4479 11.8226 33.6176 11.7041 32.4151C11.5841 31.1969 11.5833 29.6619 11.5833 27.5432H10.0833ZM33.1143 41.145C31.6393 41.919 30.5769 42.4757 29.6876 42.8435C28.8121 43.2056 28.1542 43.3624 27.4999 43.3624V44.8624C28.4194 44.8624 29.2799 44.6353 30.2609 44.2296C31.228 43.8297 32.3602 43.2347 33.8113 42.4732L33.1143 41.145ZM21.1886 42.4732C22.6397 43.2347 23.7718 43.8297 24.739 44.2296C25.7199 44.6353 26.5804 44.8624 27.4999 44.8624V43.3624C26.8456 43.3624 26.1877 43.2056 25.3122 42.8435C24.4229 42.4757 23.3605 41.919 21.8856 41.145L21.1886 42.4732ZM37.1446 40.724C38.9238 39.7903 40.3099 39.064 41.3715 38.3551C42.4488 37.6356 43.2429 36.902 43.8172 35.9267L42.5246 35.1656C42.1033 35.8811 41.503 36.4634 40.5384 37.1076C39.558 37.7624 38.2545 38.4475 36.4476 39.3957L37.1446 40.724ZM43.4166 27.5432C43.4166 29.6619 43.4157 31.1969 43.2957 32.4151C43.1773 33.6176 42.9472 34.4479 42.5246 35.1656L43.8172 35.9267C44.3903 34.9535 44.6581 33.8864 44.7885 32.5622C44.9174 31.2536 44.9166 29.6326 44.9166 27.5432H43.4166ZM33.8113 12.4182C32.3602 11.6567 31.228 11.0618 30.2609 10.6618C29.2799 10.2561 28.4194 10.0291 27.4999 10.0291V11.5291C28.1542 11.5291 28.8121 11.6859 29.6876 12.0479C30.5769 12.4157 31.6393 12.9724 33.1143 13.7464L33.8113 12.4182ZM21.8856 13.7464C23.3605 12.9724 24.4229 12.4157 25.3122 12.0479C26.1877 11.6859 26.8456 11.5291 27.4999 11.5291V10.0291C26.5804 10.0291 25.7199 10.2561 24.739 10.6618C23.7718 11.0618 22.6397 11.6567 21.1886 12.4182L21.8856 13.7464ZM17.8552 14.1675C16.076 15.1012 14.6899 15.8274 13.6284 16.5364C12.5511 17.2558 11.757 17.9894 11.1826 18.9647L12.4752 19.7259C12.8965 19.0103 13.4968 18.428 14.4614 17.7838C15.4418 17.1291 16.7453 16.4439 18.5523 15.4957L17.8552 14.1675ZM11.5833 27.3482C11.5833 25.2295 11.5841 23.6945 11.7041 22.4763C11.8226 21.2738 12.0526 20.4435 12.4752 19.7259L11.1826 18.9647C10.6096 19.9379 10.3418 21.005 10.2113 22.3293C10.0824 23.6379 10.0833 25.2589 10.0833 27.3482H11.5833ZM36.4476 15.4957C38.2545 16.4439 39.558 17.1291 40.5384 17.7838C41.503 18.428 42.1033 19.0103 42.5246 19.7259L43.8172 18.9647C43.2429 17.9894 42.4488 17.2558 41.3715 16.5364C40.3099 15.8274 38.9238 15.1012 37.1446 14.1675L36.4476 15.4957ZM44.9166 27.3482C44.9166 25.2589 44.9174 23.6379 44.7885 22.3293C44.6581 21.005 44.3903 19.9379 43.8172 18.9647L42.5246 19.7259C42.9472 20.4435 43.1773 21.2738 43.2957 22.4763C43.4157 23.6945 43.4166 25.2295 43.4166 27.3482H44.9166Z" fill="#1C274C"/>
<path d="M42.8354 20.6165C43.2059 20.4313 43.3561 19.9808 43.1708 19.6103C42.9856 19.2398 42.5351 19.0896 42.1646 19.2749L42.8354 20.6165ZM12.8354 19.2749C12.4649 19.0896 12.0144 19.2398 11.8292 19.6103C11.6439 19.9808 11.7941 20.4313 12.1646 20.6165L12.8354 19.2749ZM26.75 43.279C26.75 43.6932 27.0858 44.029 27.5 44.029C27.9142 44.029 28.25 43.6932 28.25 43.279H26.75ZM35 23.6957L35.3354 24.3665L35 23.6957ZM35.0833 29.1123C35.0833 29.5266 35.4191 29.8623 35.8333 29.8623C36.2475 29.8623 36.5833 29.5266 36.5833 29.1123H35.0833ZM20.3493 14.282C19.9828 14.0891 19.5292 14.2298 19.3363 14.5964C19.1434 14.9629 19.2841 15.4164 19.6507 15.6094L20.3493 14.282ZM27.8354 26.7749L12.8354 19.2749L12.1646 20.6165L27.1646 28.1165L27.8354 26.7749ZM26.75 27.4457V43.279H28.25V27.4457H26.75ZM34.6646 23.0249C33.9061 23.4041 33.1238 23.7953 32.2571 24.2286C32.1828 24.2657 32.0161 24.3491 31.9418 24.3862C31.9335 24.3904 31.9108 24.4018 31.9025 24.4059C31.8959 24.4092 31.8893 24.4125 31.8828 24.4158C31.8762 24.419 31.8696 24.4223 31.8631 24.4256C31.8441 24.4351 31.8034 24.4555 31.7844 24.465C31.7778 24.4682 31.7713 24.4715 31.7647 24.4748C31.7582 24.4781 31.7516 24.4813 31.7451 24.4846C31.7143 24.5 31.7366 24.4889 31.7058 24.5043C31.6992 24.5075 31.6927 24.5108 31.6861 24.5141C31.6796 24.5174 31.673 24.5206 31.6665 24.5239C31.6437 24.5353 31.65 24.5321 31.6272 24.5435C31.6237 24.5453 31.4739 24.6202 31.4705 24.6219C31.464 24.6252 31.4575 24.6284 31.451 24.6317C31.4444 24.6349 31.4379 24.6382 31.4314 24.6414C31.4249 24.6447 31.4184 24.648 31.4119 24.6512C31.4054 24.6545 31.3989 24.6577 31.3924 24.661C31.3859 24.6642 31.3794 24.6675 31.3729 24.6707C31.3663 24.674 31.3598 24.6772 31.3533 24.6805C31.3468 24.6837 31.3404 24.687 31.3339 24.6902C31.3274 24.6935 31.3209 24.6967 31.3144 24.7C31.2734 24.7205 31.2775 24.7184 31.2366 24.7389C31.2301 24.7421 31.2236 24.7453 31.2171 24.7486C31.2107 24.7518 31.2042 24.755 31.1977 24.7583C31.1705 24.7719 31.1862 24.7641 31.159 24.7777C31.1331 24.7906 31.1074 24.8035 31.0816 24.8164C31.0751 24.8196 31.0687 24.8228 31.0623 24.826C31.0558 24.8292 31.0494 24.8325 31.043 24.8357C31.0365 24.8389 31.0301 24.8421 31.0237 24.8453C31.0173 24.8485 31.0108 24.8517 31.0044 24.8549C30.9781 24.8681 30.9922 24.861 30.9659 24.8742C30.9531 24.8806 30.9403 24.887 30.9275 24.8934C30.9147 24.8998 30.9019 24.9062 30.8892 24.9126C30.8624 24.926 30.8776 24.9183 30.8509 24.9317C30.8201 24.9471 30.8052 24.9546 30.7745 24.9699C30.7266 24.9939 30.7844 24.965 30.7365 24.9889C30.7346 24.9899 30.7004 25.007 30.6985 25.0079C30.6922 25.0111 30.6858 25.0142 30.6795 25.0174C30.6732 25.0206 30.6669 25.0237 30.6606 25.0269C30.6446 25.0348 30.6387 25.0378 30.6228 25.0458C30.6165 25.0489 30.6102 25.0521 30.6039 25.0552C30.5976 25.0584 30.5913 25.0615 30.585 25.0646C30.577 25.0686 30.5554 25.0795 30.5474 25.0835C30.533 25.0907 30.4866 25.1138 30.4724 25.121C30.4504 25.132 30.4569 25.1287 30.435 25.1397C30.4283 25.143 30.4044 25.1549 30.3977 25.1583C30.391 25.1617 30.3301 25.1921 30.3235 25.1954C30.2864 25.2139 30.2865 25.2139 30.2496 25.2323C30.186 25.2642 30.2765 25.2189 30.2129 25.2507C30.2068 25.2538 30.2006 25.2568 30.1945 25.2599C30.1884 25.2629 30.1823 25.266 30.1762 25.269C30.1583 25.278 30.121 25.2967 30.1033 25.3055C30.035 25.3397 30.0989 25.3077 30.0308 25.3418C30.024 25.3451 30.0014 25.3565 29.9947 25.3598C29.9708 25.3717 29.9826 25.3659 29.9587 25.3778C29.9528 25.3808 29.9468 25.3838 29.9408 25.3867C29.9349 25.3897 29.9289 25.3927 29.9229 25.3957C29.8691 25.4226 29.941 25.3866 29.8872 25.4135C29.8813 25.4165 29.8754 25.4195 29.8694 25.4224C29.8635 25.4254 29.8576 25.4284 29.8517 25.4313C29.8458 25.4343 29.8398 25.4372 29.8339 25.4402C29.828 25.4431 29.8221 25.4461 29.8162 25.449C29.7867 25.4638 29.8104 25.452 29.7809 25.4667C29.7751 25.4696 29.7692 25.4726 29.7633 25.4755C29.7575 25.4784 29.7516 25.4813 29.7458 25.4843C29.7399 25.4872 29.7341 25.4901 29.7283 25.493C29.7224 25.4959 29.7166 25.4989 29.7108 25.5018C29.7049 25.5047 29.6991 25.5076 29.6933 25.5105C29.6875 25.5134 29.6817 25.5163 29.6759 25.5192C29.6701 25.5221 29.6643 25.525 29.6585 25.5279C29.6527 25.5308 29.6469 25.5337 29.6411 25.5366C29.6345 25.5399 29.6131 25.5506 29.6065 25.5539C29.5825 25.5659 29.5961 25.5591 29.5721 25.5711C29.5606 25.5768 29.5492 25.5825 29.5378 25.5883C29.5151 25.5996 29.4922 25.6111 29.4697 25.6223C29.4471 25.6336 29.4245 25.6449 29.4022 25.6561C29.3278 25.6932 29.3425 25.6859 29.2691 25.7226C29.149 25.7826 29.1275 25.7934 29.0112 25.8515C29.006 25.8542 29.0007 25.8568 28.9955 25.8594C28.9903 25.862 28.985 25.8646 28.9798 25.8672C28.9746 25.8699 28.9694 25.8725 28.9642 25.8751C28.959 25.8777 28.9538 25.8803 28.9486 25.8829C28.9254 25.8945 28.9407 25.8868 28.9176 25.8984C28.9113 25.9015 28.8929 25.9107 28.8867 25.9138C28.8457 25.9343 28.8053 25.9545 28.7654 25.9745C28.566 26.0741 28.4944 26.1099 28.3142 26.2001C28.3042 26.2051 28.2715 26.2214 28.2619 26.2262C28.2201 26.2471 28.2521 26.2311 28.2106 26.2518C28.1963 26.259 28.1997 26.2573 28.1854 26.2645C28.1812 26.2666 28.177 26.2687 28.1728 26.2707C28.1687 26.2728 28.1645 26.2749 28.1604 26.277C28.1298 26.2922 28.1413 26.2865 28.1111 26.3016C28.0436 26.3353 27.9863 26.364 27.9246 26.3949C27.6409 26.5367 27.544 26.5852 27.3667 26.6738C27.3419 26.6862 27.3434 26.6854 27.3205 26.6969C27.3199 26.6972 27.2996 26.7073 27.2995 26.7074C27.2942 26.71 27.2948 26.7098 27.2896 26.7124C27.288 26.7132 27.2863 26.714 27.2847 26.7148C27.2831 26.7156 27.2816 26.7164 27.28 26.7172C27.2784 26.7179 27.2769 26.7187 27.2753 26.7195C27.2738 26.7203 27.2723 26.721 27.2708 26.7218C27.265 26.7246 27.2675 26.7234 27.2619 26.7262C27.2359 26.7392 27.2709 26.7217 27.2453 26.7345C27.2401 26.7371 27.2427 26.7358 27.2376 26.7384C27.2363 26.739 27.2351 26.7396 27.2339 26.7402C27.2326 26.7408 27.2314 26.7414 27.2302 26.742C27.2059 26.7542 27.2405 26.7369 27.2166 26.7488C27.1626 26.7759 27.2581 26.7281 27.2046 26.7549C27.1689 26.7727 27.2292 26.7426 27.1941 26.7601C27.1902 26.7621 27.1796 26.7674 27.1778 26.7683C27.1551 26.7796 27.1942 26.7601 27.172 26.7711C27.1665 26.7739 27.1752 26.7695 27.1698 26.7723C27.1695 26.7724 27.168 26.7731 27.1679 26.7732C27.1676 26.7733 27.1674 26.7735 27.1671 26.7736C27.1669 26.7737 27.1667 26.7738 27.1665 26.7739C27.1663 26.774 27.1661 26.7741 27.1659 26.7742C27.1657 26.7743 27.1656 26.7744 27.1654 26.7744C27.1651 26.7746 27.165 26.7747 27.1648 26.7748C27.1647 26.7748 27.1647 26.7748 27.1646 26.7748C27.1646 26.7748 27.1646 26.7749 27.5 27.4457C27.8354 28.1165 27.8354 28.1165 27.8355 28.1165C27.8355 28.1165 27.8355 28.1164 27.8356 28.1164C27.8358 28.1163 27.8359 28.1163 27.8362 28.1161C27.8372 28.1156 27.8372 28.1156 27.8387 28.1148C27.86 28.1042 27.8252 28.1216 27.8486 28.1099C27.871 28.0987 27.8567 28.1059 27.8875 28.0905C27.9134 28.0775 27.9804 28.044 28.0375 28.0154C28.0396 28.0144 28.0416 28.0134 28.0437 28.0123C28.0458 28.0113 28.0479 28.0103 28.05 28.0092C28.0568 28.0058 28.0558 28.0063 28.0627 28.0028C28.0649 28.0018 28.0671 28.0007 28.0693 27.9996C28.0714 27.9985 28.0736 27.9974 28.0759 27.9963C28.0781 27.9952 28.0803 27.9941 28.0825 27.9929C28.0848 27.9918 28.087 27.9907 28.0893 27.9895C28.1108 27.9788 28.0815 27.9935 28.1031 27.9826C28.1351 27.9667 28.0851 27.9916 28.1172 27.9756C28.1196 27.9744 28.122 27.9732 28.1244 27.972C28.1268 27.9708 28.1293 27.9696 28.1317 27.9684C28.1341 27.9671 28.1366 27.9659 28.1391 27.9647C28.1415 27.9634 28.144 27.9622 28.1465 27.961C28.1849 27.9418 28.1688 27.9498 28.209 27.9297C28.2126 27.9279 28.2381 27.9152 28.2421 27.9131C28.2819 27.8932 28.2193 27.9246 28.2592 27.9046C28.2621 27.9032 28.2649 27.9017 28.2678 27.9003C28.2707 27.8988 28.2736 27.8974 28.2766 27.8959C28.287 27.8907 28.3371 27.8657 28.3491 27.8596C28.3717 27.8483 28.4024 27.833 28.4266 27.8209C28.4276 27.8204 28.5061 27.7811 28.5087 27.7799C28.555 27.7567 28.5048 27.7818 28.5515 27.7585C28.5642 27.7521 28.5823 27.743 28.5954 27.7365C28.6311 27.7187 28.6494 27.7095 28.6865 27.6909C28.7097 27.6794 28.7574 27.6555 28.7819 27.6432C28.7935 27.6374 28.8192 27.6246 28.8312 27.6186C28.8353 27.6165 28.8395 27.6145 28.8437 27.6124C28.8478 27.6103 28.852 27.6082 28.8562 27.6061C28.8752 27.5966 28.8623 27.603 28.8815 27.5935C28.8977 27.5853 28.9674 27.5505 28.985 27.5417C29.1653 27.4516 29.2369 27.4158 29.4362 27.3161C29.5275 27.2705 29.4652 27.3016 29.5575 27.2554C29.5627 27.2529 29.5678 27.2503 29.5729 27.2477C29.5781 27.2452 29.5832 27.2426 29.5884 27.24C29.6115 27.2284 29.5962 27.2361 29.6194 27.2245C29.657 27.2057 29.6442 27.2121 29.682 27.1932C29.7594 27.1545 29.7312 27.1686 29.8095 27.1294C29.8186 27.1249 29.9299 27.0692 29.9399 27.0643C30.0134 27.0275 29.9987 27.0349 30.073 26.9977C30.099 26.9847 30.0806 26.9939 30.1067 26.9809C30.1134 26.9775 30.1337 26.9673 30.1405 26.964C30.163 26.9527 30.1859 26.9413 30.2086 26.9299C30.2314 26.9185 30.2544 26.907 30.2774 26.8955C30.284 26.8922 30.3053 26.8815 30.312 26.8782C30.3177 26.8753 30.3235 26.8724 30.3293 26.8695C30.3351 26.8667 30.3409 26.8638 30.3467 26.8609C30.3592 26.8546 30.4738 26.7973 30.4871 26.7907C30.5828 26.7428 30.6757 26.6964 30.7741 26.6472C30.7918 26.6383 30.8291 26.6196 30.847 26.6107C30.8531 26.6076 30.8592 26.6046 30.8653 26.6015C30.8715 26.5985 30.8776 26.5954 30.8837 26.5924C30.8898 26.5893 30.8959 26.5862 30.9021 26.5832C30.9082 26.5801 30.9143 26.577 30.9204 26.574C30.9573 26.5555 30.9572 26.5556 30.9943 26.5371C31.0009 26.5338 31.0618 26.5033 31.0685 26.4999C31.1265 26.4709 31.3094 26.3795 31.3693 26.3496C31.3949 26.3368 31.4957 26.2863 31.5217 26.2734C31.6231 26.2226 31.5734 26.2475 31.6752 26.1966C31.706 26.1812 31.7987 26.1349 31.8298 26.1193C31.8341 26.1171 31.8642 26.1021 31.8686 26.0999C31.875 26.0967 31.8815 26.0935 31.888 26.0902C31.8944 26.087 31.9009 26.0837 31.9074 26.0805C31.9139 26.0773 31.9203 26.074 31.9268 26.0708C31.9333 26.0676 31.9398 26.0643 31.9463 26.0611C31.9871 26.0407 31.9444 26.062 31.9852 26.0416C32.0643 26.0021 32.062 26.0032 32.1413 25.9635C32.1479 25.9603 32.1544 25.957 32.1609 25.9538C32.1674 25.9505 32.1739 25.9472 32.1805 25.944C32.187 25.9407 32.1935 25.9374 32.2 25.9342C32.2066 25.9309 32.2131 25.9277 32.2196 25.9244C32.2262 25.9211 32.2327 25.9179 32.2392 25.9146C32.2458 25.9113 32.2523 25.9081 32.2588 25.9048C32.319 25.8747 32.2379 25.9153 32.2981 25.8852C32.3208 25.8738 32.3145 25.8769 32.3373 25.8656C32.3439 25.8623 32.3504 25.859 32.3569 25.8557C32.3635 25.8525 32.37 25.8492 32.3766 25.8459C32.3831 25.8426 32.3897 25.8394 32.3962 25.8361C32.4028 25.8328 32.4093 25.8295 32.4159 25.8263C32.4224 25.823 32.429 25.8197 32.4355 25.8164C32.4421 25.8132 32.4487 25.8099 32.4552 25.8066C32.4618 25.8033 32.4683 25.8 32.4749 25.7968C32.4814 25.7935 32.488 25.7902 32.4946 25.7869C32.5011 25.7836 32.5077 25.7804 32.5142 25.7771C32.5208 25.7738 32.5273 25.7705 32.5339 25.7673C32.5405 25.764 32.547 25.7607 32.5536 25.7574C32.5602 25.7541 32.5667 25.7508 32.5733 25.7476C32.6007 25.7338 32.5852 25.7416 32.6127 25.7279C32.6389 25.7147 32.6652 25.7016 32.6915 25.6885C32.698 25.6852 32.7046 25.6819 32.7112 25.6786C32.7177 25.6753 32.7243 25.6721 32.7309 25.6688C32.7354 25.6665 32.7658 25.6513 32.7703 25.6491C32.7768 25.6458 32.7834 25.6425 32.79 25.6392C32.7965 25.6359 32.8031 25.6326 32.8097 25.6294C32.8604 25.604 32.7984 25.635 32.8491 25.6097C32.8947 25.5868 32.8429 25.6128 32.8885 25.59C32.8951 25.5867 32.9016 25.5834 32.9082 25.5801C32.9148 25.5768 32.9213 25.5735 32.9279 25.5703C33.7912 25.1386 34.5803 24.7441 35.3354 24.3665L34.6646 23.0249ZM42.1646 19.2749L35.4979 22.6082L36.1687 23.9498L42.8354 20.6165L42.1646 19.2749ZM35.8333 23.279C35.4979 22.6082 35.4979 22.6082 35.4979 22.6082C35.4979 22.6082 35.4979 22.6082 35.4979 22.6082C35.4979 22.6082 35.4979 22.6082 35.4979 22.6082C35.4979 22.6082 35.4978 22.6082 35.4978 22.6082C35.4978 22.6082 35.4978 22.6083 35.4978 22.6083C35.4978 22.6083 35.4977 22.6083 35.4977 22.6083C35.4977 22.6083 35.4977 22.6083 35.4976 22.6083C35.4976 22.6083 35.4976 22.6084 35.4976 22.6084C35.4671 22.6236 35.5272 22.5936 35.4965 22.6089C35.49 22.6121 35.4995 22.6074 35.4921 22.6111C35.4912 22.6116 35.4901 22.6121 35.489 22.6127C35.483 22.6157 35.4913 22.6115 35.4851 22.6146C35.4802 22.617 35.4857 22.6143 35.4806 22.6169C35.4776 22.6184 35.4787 22.6178 35.4755 22.6194C35.4164 22.649 35.4844 22.615 35.4135 22.6504C35.3562 22.6791 35.4299 22.6422 35.3702 22.6721C35.3689 22.6727 35.3597 22.6773 35.3583 22.678C35.357 22.6787 35.3473 22.6835 35.3459 22.6842C35.3447 22.6848 35.3345 22.6899 35.3332 22.6906C35.332 22.6912 35.3214 22.6965 35.3201 22.6971C35.3178 22.6982 35.3156 22.6993 35.3134 22.7005C35.3063 22.704 35.3136 22.7003 35.3066 22.7039C35.3043 22.705 35.302 22.7062 35.2997 22.7073C35.2974 22.7085 35.2951 22.7096 35.2927 22.7108C35.2909 22.7117 35.2663 22.724 35.2641 22.7251C35.2593 22.7275 35.2616 22.7264 35.2567 22.7288C35.2561 22.7291 35.2555 22.7294 35.2549 22.7297C35.2543 22.73 35.2536 22.7303 35.253 22.7306C35.253 22.7307 35.2493 22.7325 35.2493 22.7325C35.2279 22.7432 35.2557 22.7293 35.2342 22.74C35.1834 22.7655 35.2545 22.7299 35.2033 22.7555C35.1795 22.7674 35.1955 22.7594 35.1714 22.7715C35.1647 22.7748 35.1456 22.7843 35.1387 22.7878C35.0927 22.8108 35.1515 22.7814 35.1053 22.8045C35.1013 22.8065 35.1008 22.8067 35.0968 22.8087C35.0954 22.8095 35.094 22.8102 35.0926 22.8109C35.0919 22.8112 35.0912 22.8116 35.0905 22.8119C35.0898 22.8123 35.089 22.8126 35.0883 22.813C35.0583 22.828 35.1014 22.8065 35.0713 22.8215C35.0706 22.8219 35.0698 22.8222 35.0691 22.8226C35.0684 22.8229 35.0677 22.8233 35.067 22.8237C35.0656 22.8244 35.0641 22.8251 35.0627 22.8258C35.0621 22.8261 35.059 22.8276 35.0584 22.828C35.0577 22.8283 35.057 22.8287 35.0563 22.829C35.0555 22.8294 35.0548 22.8297 35.0541 22.8301C35.0495 22.8324 35.0501 22.8321 35.0455 22.8344C35.018 22.8481 35.0643 22.825 35.0368 22.8387C35.0253 22.8445 35.0137 22.8503 35.0021 22.8561C34.9676 22.8734 35.0017 22.8563 34.9671 22.8736C34.9434 22.8854 34.9558 22.8793 34.9321 22.8911C34.788 22.9632 34.7967 22.9588 34.6646 23.0249L35.3354 24.3665C35.3798 24.3443 35.3528 24.3578 35.3984 24.335C35.4062 24.3311 35.4069 24.3308 35.4147 24.3269C35.4284 24.32 35.4174 24.3255 35.4312 24.3186C35.4335 24.3175 35.433 24.3177 35.4353 24.3165C35.4448 24.3118 35.43 24.3192 35.4395 24.3145C35.4458 24.3113 35.4415 24.3134 35.4478 24.3103C35.4852 24.2916 35.4147 24.3269 35.452 24.3082C35.4637 24.3023 35.4445 24.3119 35.4562 24.3061C35.4598 24.3043 35.4569 24.3058 35.4604 24.304C35.464 24.3022 35.4611 24.3037 35.4647 24.3019C35.5255 24.2714 35.5404 24.264 35.6029 24.2327C35.6503 24.2091 35.6256 24.2214 35.6729 24.1978C35.6845 24.1919 35.6961 24.1861 35.7077 24.1804C35.7557 24.1564 35.6942 24.1871 35.7421 24.1632C35.7878 24.1403 35.8322 24.1181 35.8741 24.0971C35.8951 24.0867 35.9154 24.0765 35.9349 24.0667C35.9544 24.057 35.9731 24.0476 35.9909 24.0388C35.9953 24.0365 35.9997 24.0344 36.004 24.0322C36.0053 24.0315 36.0155 24.0264 36.0167 24.0258C36.038 24.0152 36.0203 24.024 36.041 24.0137C36.0713 23.9985 36.0564 24.006 36.0843 23.9921C36.1001 23.9842 36.1067 23.9808 36.1197 23.9743C36.1467 23.9608 36.1224 23.973 36.1463 23.9611C36.1538 23.9573 36.1493 23.9596 36.1559 23.9562C36.1568 23.9558 36.1571 23.9557 36.1579 23.9552C36.1599 23.9543 36.1579 23.9553 36.1598 23.9543C36.1614 23.9535 36.1616 23.9534 36.163 23.9527C36.1667 23.9509 36.1645 23.952 36.1673 23.9506C36.1675 23.9504 36.1674 23.9505 36.1676 23.9504C36.1678 23.9503 36.1677 23.9503 36.1679 23.9502C36.1681 23.9502 36.168 23.9502 36.1682 23.9501C36.1682 23.9501 36.1683 23.95 36.1684 23.95C36.1685 23.95 36.1686 23.9499 36.1686 23.9499C36.1691 23.9496 36.1683 23.9501 36.1687 23.9498C36.1687 23.9498 36.1687 23.9498 36.1687 23.9498C36.1687 23.9498 36.1687 23.9498 35.8333 23.279ZM35.0833 23.279V29.1123H36.5833V23.279H35.0833ZM36.1826 22.6153L20.3493 14.282L19.6507 15.6094L35.484 23.9427L36.1826 22.6153Z" fill="#1C274C"/>
</svg>
