<svg width="60" height="60" viewBox="0 0 60 60" fill="none" xmlns="http://www.w3.org/2000/svg">
<path d="M26 50C18.4575 50 14.6863 50 12.3431 47.6569C10 45.3137 10 43.5425 10 36" stroke="#383838" stroke-width="1.5" stroke-linecap="round"/>
<path d="M50 36C50 43.5425 50 45.3137 47.6569 47.6569C45.3137 50 41.5425 50 34 50" stroke="#383838" stroke-width="1.5" stroke-linecap="round"/>
<path d="M34 10C41.5425 10 45.3137 10 47.6569 12.3431C50 14.6863 50 16.4575 50 24" stroke="#383838" stroke-width="1.5" stroke-linecap="round"/>
<path d="M26 10C18.4575 10 14.6863 10 12.3431 12.3431C10 14.6863 10 16.4575 10 24" stroke="#383838" stroke-width="1.5" stroke-linecap="round"/>
<path d="M17.7849 34.1196C16.595 32.7393 16 32.0492 16 30C16 27.9508 16.5949 27.2607 17.7848 25.8804C20.1607 23.1244 24.1454 20 30 20C35.8546 20 39.8393 23.1244 42.2152 25.8804C43.4051 27.2607 44 27.9508 44 30C44 32.0492 43.4051 32.7393 42.2152 34.1196C39.8393 36.8756 35.8546 40 30 40C24.1454 40 20.1608 36.8756 17.7849 34.1196Z" stroke="#383838" stroke-width="1.5"/>
<circle cx="30" cy="30" r="4" stroke="#383838" stroke-width="1.5"/>
</svg>
